<svg xmlns="http://www.w3.org/2000/svg" viewBox="0 0 645.46 101.71"><defs><style>.cls-1{fill:rgba(165, 209, 111, 0.9);}.cls-2{fill:#f8f9fa;}</style></defs><g id="Layer_2" data-name="Layer 2"><g id="Layer_1-2" data-name="Layer 1"><path class="cls-1" d="M43.59,87.18a28.53,28.53,0,0,0,11.22-2.25,29.16,29.16,0,0,0,4.75-2.54,7.3,7.3,0,0,1,9.19.89h0a7.3,7.3,0,0,1-1.23,11.28,44.59,44.59,0,0,1-7.1,3.78,43.75,43.75,0,0,1-30.2,1.28,43.19,43.19,0,0,1-11.85-6A45.54,45.54,0,0,1,12.79,89a43.82,43.82,0,0,1-4.71-5.58A43.13,43.13,0,0,1,0,58.12,42.61,42.61,0,0,1,3.37,41.3a43.8,43.8,0,0,1,23.4-23.4,42.61,42.61,0,0,1,16.82-3.37,43.19,43.19,0,0,1,25.26,8.08,44.41,44.41,0,0,1,5.57,4.71l0,.05a7.28,7.28,0,0,1-.1,10.26l-5.73,5.73L28.83,83.17a28.88,28.88,0,0,0,14.76,4ZM14.53,58.12a28.5,28.5,0,0,0,4,14.76L58.35,33.1a29,29,0,0,0-26-1.79A29.25,29.25,0,0,0,16.78,46.9,28.53,28.53,0,0,0,14.53,58.12Z"/><path class="cls-1" d="M206.64,58.12V94.45a7.27,7.27,0,0,1-7.27,7.26h0a7.26,7.26,0,0,1-7.26-7.26V58.12a28.37,28.37,0,0,0-2.26-11.22,29.16,29.16,0,0,0-15.59-15.59,29.08,29.08,0,0,0-22.43,0A29.16,29.16,0,0,0,136.24,46.9,28.54,28.54,0,0,0,134,58.12V94.45a7.26,7.26,0,0,1-7.26,7.26h0a7.27,7.27,0,0,1-7.27-7.26V58.12a42.78,42.78,0,0,1,3.38-16.84,43.59,43.59,0,0,1,23.39-23.39,43.81,43.81,0,0,1,33.65,0,43.65,43.65,0,0,1,23.4,23.39A43,43,0,0,1,206.64,58.12Z"/><path class="cls-1" d="M306.9,14.53h0a7.26,7.26,0,0,1,7.26,7.27V94.45a7.26,7.26,0,0,1-7.26,7.26h0a7.26,7.26,0,0,1-7.27-7.26V90.61a43.94,43.94,0,0,1-13.37,8.18A43.56,43.56,0,0,1,259,100.14a43.08,43.08,0,0,1-10.43-4.37,43.36,43.36,0,0,1-20-26.07,43.49,43.49,0,0,1,0-23.16A43.36,43.36,0,0,1,259,16.1a43.56,43.56,0,0,1,27.27,1.35,43.94,43.94,0,0,1,13.37,8.18V21.8A7.26,7.26,0,0,1,306.9,14.53ZM261.4,85.71a29.34,29.34,0,0,0,18.34,0,27.7,27.7,0,0,0,8-4.15A31.47,31.47,0,0,0,294,75.3a27.7,27.7,0,0,0,4.15-8,29.34,29.34,0,0,0,0-18.34A27.52,27.52,0,0,0,294,41a31.52,31.52,0,0,0-6.26-6.27,28,28,0,0,0-8-4.15,29.34,29.34,0,0,0-18.34,0,27.77,27.77,0,0,0-8,4.15A31.57,31.57,0,0,0,247.13,41,27.77,27.77,0,0,0,243,49a29.34,29.34,0,0,0,0,18.34,28,28,0,0,0,4.15,8,31.52,31.52,0,0,0,6.27,6.26A27.52,27.52,0,0,0,261.4,85.71Z"/><path class="cls-1" d="M422.63,66.46a25.61,25.61,0,0,1,0,19.65,25.26,25.26,0,0,1-5.48,8.16,24.85,24.85,0,0,1-8.1,5.44,25.25,25.25,0,0,1-9.88,2h-50.3a7.26,7.26,0,0,1-7.26-7.26h0a7.26,7.26,0,0,1,7.26-7.27H399a11,11,0,0,0,7.62-3,10.51,10.51,0,0,0,3.44-7.94,11,11,0,0,0-3.35-7.85,10.47,10.47,0,0,0-7.54-3H362.84a25,25,0,0,1-9.82-2A25.28,25.28,0,0,1,344.85,58a25.58,25.58,0,0,1-5.48-8.17,25.58,25.58,0,0,1,0-19.64A25.44,25.44,0,0,1,353,16.49a25,25,0,0,1,9.82-2h40a7.26,7.26,0,0,1,7.26,7.27h0a7.26,7.26,0,0,1-7.26,7.26H363a11.09,11.09,0,0,0-7.63,3A10.55,10.55,0,0,0,351.94,40a11,11,0,0,0,3.36,7.86,10.5,10.5,0,0,0,7.54,3h36.33a25,25,0,0,1,9.82,2,25.49,25.49,0,0,1,13.64,13.64Z"/><path class="cls-1" d="M531.65,41.28a43.74,43.74,0,0,1,0,33.67,43.5,43.5,0,0,1-23.39,23.39,43.74,43.74,0,0,1-33.67,0,44,44,0,0,1-7.09-3.77,7.31,7.31,0,0,1-1.23-11.29h0a7.3,7.3,0,0,1,9.19-.88,30,30,0,0,0,4.76,2.53,29.08,29.08,0,0,0,22.43,0,29.08,29.08,0,0,0,15.59-15.59,29.1,29.1,0,0,0,0-22.44,29.16,29.16,0,0,0-15.59-15.59,28.46,28.46,0,0,0-11.22-2.25H462.37V65.39a7.26,7.26,0,0,1-7.26,7.26h0a7.27,7.27,0,0,1-7.27-7.26V7.27A7.27,7.27,0,0,1,455.11,0h0a7.26,7.26,0,0,1,7.26,7.27v7.26h29.06a42.86,42.86,0,0,1,16.83,3.36,43.59,43.59,0,0,1,23.39,23.39Z"/><path class="cls-1" d="M638.19,14.53h0a7.27,7.27,0,0,1,7.27,7.27V94.45a7.27,7.27,0,0,1-7.27,7.26h0a7.26,7.26,0,0,1-7.26-7.26V90.61a44.06,44.06,0,0,1-13.37,8.18,43.59,43.59,0,0,1-27.28,1.35,43.56,43.56,0,0,1,0-84,43.59,43.59,0,0,1,27.28,1.35,44.06,44.06,0,0,1,13.37,8.18V21.8A7.26,7.26,0,0,1,638.19,14.53ZM592.7,85.71a29.31,29.31,0,0,0,18.33,0,27.45,27.45,0,0,0,8-4.15,31.47,31.47,0,0,0,6.26-6.26,28,28,0,0,0,4.16-8,29.34,29.34,0,0,0,0-18.34,27.79,27.79,0,0,0-4.16-8A31.52,31.52,0,0,0,619,34.68a27.69,27.69,0,0,0-8-4.15,29.31,29.31,0,0,0-18.33,0,27.69,27.69,0,0,0-8,4.15A31.52,31.52,0,0,0,578.43,41a27.54,27.54,0,0,0-4.16,8,29.34,29.34,0,0,0,0,18.34,27.73,27.73,0,0,0,4.16,8,31.47,31.47,0,0,0,6.26,6.26A27.45,27.45,0,0,0,592.7,85.71Z"/><circle class="cls-2" cx="87.21" cy="58.12" r="11.9"/></g></g></svg>